<svg xmlns="http://www.w3.org/2000/svg" width="600" height="600" viewBox="0 0 600 600">
  <g fill="none" stroke-linecap="round" stroke-linejoin="round">
    <!-- Central terrain feature -->
    <ellipse cx="300" cy="300" rx="265" ry="215" stroke="rgba(255,255,255,0.033)" stroke-width="0.75"/>
    <ellipse cx="300" cy="300" rx="225" ry="180" stroke="rgba(255,255,255,0.036)" stroke-width="0.75"/>
    <ellipse cx="300" cy="300" rx="188" ry="148" stroke="rgba(255,255,255,0.038)" stroke-width="0.75"/>
    <ellipse cx="300" cy="300" rx="152" ry="118" stroke="rgba(255,255,255,0.036)" stroke-width="0.75"/>
    <ellipse cx="300" cy="300" rx="118" ry="90" stroke="rgba(255,255,255,0.033)" stroke-width="0.75"/>
    <ellipse cx="300" cy="300" rx="86" ry="64" stroke="rgba(255,255,255,0.028)" stroke-width="0.75"/>
    <ellipse cx="300" cy="300" rx="56" ry="42" stroke="rgba(255,255,255,0.022)" stroke-width="0.75"/>
    <ellipse cx="300" cy="300" rx="30" ry="22" stroke="rgba(255,255,255,0.016)" stroke-width="0.75"/>
    <!-- Upper-right tiling feature -->
    <ellipse cx="570" cy="55" rx="185" ry="145" stroke="rgba(255,255,255,0.026)" stroke-width="0.75" transform="rotate(22 570 55)"/>
    <ellipse cx="570" cy="55" rx="148" ry="115" stroke="rgba(255,255,255,0.023)" stroke-width="0.75" transform="rotate(22 570 55)"/>
    <ellipse cx="570" cy="55" rx="114" ry="86" stroke="rgba(255,255,255,0.020)" stroke-width="0.75" transform="rotate(22 570 55)"/>
    <ellipse cx="570" cy="55" rx="82" ry="60" stroke="rgba(255,255,255,0.015)" stroke-width="0.75" transform="rotate(22 570 55)"/>
    <!-- Lower-left tiling feature -->
    <ellipse cx="30" cy="545" rx="165" ry="125" stroke="rgba(255,255,255,0.023)" stroke-width="0.75" transform="rotate(-12 30 545)"/>
    <ellipse cx="30" cy="545" rx="128" ry="96" stroke="rgba(255,255,255,0.020)" stroke-width="0.75" transform="rotate(-12 30 545)"/>
    <ellipse cx="30" cy="545" rx="94" ry="70" stroke="rgba(255,255,255,0.016)" stroke-width="0.75" transform="rotate(-12 30 545)"/>
    <!-- Atmospheric blue-tinted accent contours -->
    <ellipse cx="300" cy="300" rx="245" ry="196" stroke="rgba(96,160,250,0.012)" stroke-width="1"/>
    <ellipse cx="300" cy="300" rx="168" ry="132" stroke="rgba(96,160,250,0.010)" stroke-width="1"/>
  </g>
</svg>
